<?xml version="1.0" encoding="UTF-8" standalone="no"?>
<svg
   xmlns:dc="http://purl.org/dc/elements/1.1/"
   xmlns:cc="http://creativecommons.org/ns#"
   xmlns:rdf="http://www.w3.org/1999/02/22-rdf-syntax-ns#"
   xmlns:svg="http://www.w3.org/2000/svg"
   xmlns="http://www.w3.org/2000/svg"
   id="svg8"
   version="1.1"
   viewBox="0 0 31.75 15.875"
   height="60"
   width="120">
  <defs
     id="defs2" />
  <metadata
     id="metadata5">
    <rdf:RDF>
      <cc:Work
         rdf:about="">
        <dc:format>image/svg+xml</dc:format>
        <dc:type
           rdf:resource="http://purl.org/dc/dcmitype/StillImage" />
        <dc:title></dc:title>
      </cc:Work>
    </rdf:RDF>
  </metadata>
  <g
     id="g961"
     transform="translate(0.16966669)">
    <g
       id="text36"
       style="font-style:normal;font-weight:normal;font-size:10.58333302px;line-height:1.25;font-family:sans-serif;letter-spacing:0px;word-spacing:0px;fill:#333333;fill-opacity:1;stroke:none;stroke-width:0.26458332"
       aria-label="smm">
      <path
         id="path14"
         style="font-style:normal;font-variant:normal;font-weight:normal;font-stretch:normal;font-size:11.28888893px;font-family:'Aguafina Script';-inkscape-font-specification:'Aguafina Script';fill:#333333;fill-opacity:1;stroke-width:0.26458332"
         d="m 15.364224,9.1566997 q -0.2032,0.5531556 -0.643466,0.9369783 -0.440267,0.372533 -0.824089,0.508 -0.372534,0.135466 -0.677334,0.135466 -0.824088,0 -0.824088,-0.643466 0,-0.654756 0.722488,-1.1853338 0.338667,-0.2483556 0.733778,-0.3273778 0.05645,0 0.05645,0.045156 0,0.022578 -0.02258,0.045155 -0.282222,0.2144889 -0.541867,0.6660445 -0.248355,0.4515555 -0.248355,0.790222 0,0.338667 0.282222,0.338667 0.225778,0 0.440267,-0.180622 0.225777,-0.191911 0.338666,-0.3838226 l 0.112889,-0.1806222 q 0.225778,-0.3612445 0.372533,-1.1514667 0.158045,-0.7902222 0.2032,-1.3998222 l 0.03387,-0.6096 q 0,-0.090311 -0.03387,-0.090311 l -0.04515,0.022578 -1.1176,1.3095111 q -0.124178,0.1467555 -0.169333,0.1467555 -0.05645,0 -0.05645,-0.079022 0,-0.1467556 0.07902,-0.2257778 l 0.1016,-0.1241778 q 1.286934,-1.4449777 1.467556,-1.7497777 0.169333,-0.2596445 0.496711,-0.4515556 0.316089,-0.1806222 0.745067,-0.1806222 0.112889,0 0.112889,0.090311 0,0.056444 -0.09031,0.1016 -0.03387,0.011289 -0.09031,0.056444 -0.04516,0.033867 -0.180622,0.1806223 -0.124178,0.1467555 -0.225778,0.3386666 -0.1016,0.1919111 -0.180622,0.5418667 -0.07902,0.3386667 -0.07902,0.7563556 0,1.2982222 -0.248356,1.9529777 z" />
      <path
         id="path16"
         style="font-style:normal;font-variant:normal;font-weight:normal;font-stretch:normal;font-size:11.28888893px;font-family:'Aguafina Script';-inkscape-font-specification:'Aguafina Script';fill:#333333;fill-opacity:1;stroke-width:0.26458332"
         d="m 22.153785,8.7390109 q 0.474134,-0.4741334 1.253067,-1.3659556 0.03387,-0.033867 0.05645,-0.033867 0.02258,0 0.02258,0.045156 0,0.2144889 -0.169333,0.4176889 -0.835378,0.9256889 -1.478844,1.5465778 -1.332089,1.2417781 -1.749778,1.2417781 -0.180622,0 -0.180622,-0.214489 0,-0.214489 0.225777,-0.7112003 0.237067,-0.4967111 0.462845,-0.9031111 0.237066,-0.4064 0.587022,-0.9934222 0.361244,-0.5870222 0.383822,-0.6321778 0.2032,-0.3273778 0.2032,-0.4176889 0,-0.056444 -0.05644,-0.056444 l -0.158045,0.056444 Q 21.036185,7.0908331 20.313697,7.8810553 19.591208,8.6599886 19.128363,9.2470109 L 18.665519,9.845322 q -0.519289,0.745067 -1.016,0.745067 -0.146756,0 -0.146756,-0.09031 0,-0.1016 0.214489,-0.5305783 0.214489,-0.4402666 0.428978,-0.8240888 l 0.214489,-0.3838223 q 0.07902,-0.1580444 0.383822,-0.6773333 0.316089,-0.5305778 0.519289,-0.9031111 0.214489,-0.3838222 0.214489,-0.4741334 0,-0.056444 -0.04516,-0.056444 l -0.158044,0.067733 Q 18.744541,7.0908331 18.022052,7.8810553 17.299563,8.6599886 16.848008,9.2470109 L 16.385163,9.845322 q -0.530578,0.733778 -1.016,0.733778 -0.146755,0 -0.146755,-0.07902 0,-0.1016 0.214489,-0.5305783 0.214488,-0.4402666 0.428977,-0.8240888 l 0.214489,-0.3838223 1.095022,-1.9416889 q 0.270934,-0.508 0.654756,-0.9031111 0.383822,-0.4064 0.801511,-0.4064 0.09031,0 0.09031,0.079022 0,0.067733 -0.135466,0.2935112 -0.124178,0.2144888 -0.372534,0.6096 -0.237066,0.3838222 -0.4064,0.7112 -0.1016,0.1919111 -0.248355,0.4402666 -0.135467,0.2370667 -0.225778,0.4064 -0.09031,0.1580445 -0.124178,0.2257778 -0.03387,0.067733 -0.03387,0.1016 0,0.022578 0.02258,0.022578 0.03387,0 0.112889,-0.079022 0.214489,-0.2483556 0.553156,-0.6208889 0.349955,-0.3725334 1.174044,-1.1176 0.824089,-0.7563556 1.354667,-1.016 0.112889,-0.056445 0.225778,-0.056445 0.158044,0 0.158044,0.1580445 0,0.2935111 -0.666044,1.524 -0.05645,0.1016 -0.237067,0.3951111 -0.169333,0.2935111 -0.293511,0.508 -0.112889,0.2144889 -0.112889,0.2709333 0,0.033867 0.02258,0.033867 0.03387,0 0.112889,-0.079022 0.214488,-0.2483556 0.553155,-0.6208889 0.349956,-0.3725334 1.162756,-1.1176 0.824089,-0.7563556 1.354666,-1.016 0.135467,-0.056445 0.237067,-0.056445 0.169333,0 0.169333,0.1580445 0,0.045155 -0.04516,0.2032 -0.04516,0.1467555 -0.259645,0.6208889 -0.214489,0.4628444 -0.564444,1.0272888 -0.857956,1.3208001 -0.857956,1.6594667 0,0.1016 0.06773,0.1016 0.191911,0 0.733777,-0.5418666 z" />
      <path
         id="path18"
         style="font-style:normal;font-variant:normal;font-weight:normal;font-stretch:normal;font-size:11.28888893px;font-family:'Aguafina Script';-inkscape-font-specification:'Aguafina Script';fill:#333333;fill-opacity:1;stroke-width:0.26458332"
         d="m 28.702223,8.7390109 q 0.474134,-0.4741334 1.253067,-1.3659556 0.03387,-0.033867 0.05644,-0.033867 0.02258,0 0.02258,0.045156 0,0.2144889 -0.169333,0.4176889 -0.835378,0.9256889 -1.478845,1.5465778 -1.332088,1.2417781 -1.749777,1.2417781 -0.180623,0 -0.180623,-0.214489 0,-0.214489 0.225778,-0.7112003 0.237067,-0.4967111 0.462845,-0.9031111 0.237066,-0.4064 0.587022,-0.9934222 0.361244,-0.5870222 0.383822,-0.6321778 0.2032,-0.3273778 0.2032,-0.4176889 0,-0.056444 -0.05644,-0.056444 l -0.158045,0.056444 Q 27.584623,7.0908331 26.862134,7.8810553 26.139646,8.6599886 25.676801,9.2470109 L 25.213957,9.845322 q -0.519289,0.745067 -1.016,0.745067 -0.146756,0 -0.146756,-0.09031 0,-0.1016 0.214489,-0.5305783 0.214489,-0.4402666 0.428978,-0.8240888 l 0.214489,-0.3838223 q 0.07902,-0.1580444 0.383822,-0.6773333 0.316089,-0.5305778 0.519289,-0.9031111 0.214489,-0.3838222 0.214489,-0.4741334 0,-0.056444 -0.04516,-0.056444 l -0.158044,0.067733 Q 25.292979,7.0908331 24.57049,7.8810553 23.848001,8.6599886 23.396446,9.2470109 L 22.933601,9.845322 q -0.530578,0.733778 -1.016,0.733778 -0.146755,0 -0.146755,-0.07902 0,-0.1016 0.214488,-0.5305783 0.214489,-0.4402666 0.428978,-0.8240888 l 0.214489,-0.3838223 1.095022,-1.9416889 q 0.270934,-0.508 0.654756,-0.9031111 0.383822,-0.4064 0.801511,-0.4064 0.09031,0 0.09031,0.079022 0,0.067733 -0.135467,0.2935112 -0.124177,0.2144888 -0.372533,0.6096 -0.237067,0.3838222 -0.4064,0.7112 -0.1016,0.1919111 -0.248355,0.4402666 -0.135467,0.2370667 -0.225778,0.4064 -0.09031,0.1580445 -0.124178,0.2257778 -0.03387,0.067733 -0.03387,0.1016 0,0.022578 0.02258,0.022578 0.03387,0 0.112889,-0.079022 0.214489,-0.2483556 0.553156,-0.6208889 0.349955,-0.3725334 1.174044,-1.1176 0.824089,-0.7563556 1.354667,-1.016 0.112889,-0.056445 0.225777,-0.056445 0.158045,0 0.158045,0.1580445 0,0.2935111 -0.666045,1.524 -0.05644,0.1016 -0.237066,0.3951111 -0.169334,0.2935111 -0.293511,0.508 -0.112889,0.2144889 -0.112889,0.2709333 0,0.033867 0.02258,0.033867 0.03387,0 0.112888,-0.079022 0.214489,-0.2483556 0.553156,-0.6208889 0.349956,-0.3725334 1.162756,-1.1176 0.824088,-0.7563556 1.354666,-1.016 0.135467,-0.056445 0.237067,-0.056445 0.169333,0 0.169333,0.1580445 0,0.045155 -0.04515,0.2032 -0.04516,0.1467555 -0.259645,0.6208889 -0.214489,0.4628444 -0.564444,1.0272888 -0.857956,1.3208001 -0.857956,1.6594667 0,0.1016 0.06773,0.1016 0.191911,0 0.733777,-0.5418666 z" />
    </g>
    <g
       style="fill:#6aa0ce;fill-opacity:1"
       transform="translate(-8.5826662,13.263705)"
       id="g953">
      <path
         id="rect912"
         d="M 9.9590206,-3.4741218 H 19.48402 v 1.3229166 H 9.9590206 Z"
         style="opacity:1;vector-effect:none;fill:#6aa0ce;fill-opacity:1;stroke:none;stroke-width:0.3109405;stroke-linecap:butt;stroke-linejoin:miter;stroke-miterlimit:4;stroke-dasharray:none;stroke-dashoffset:0;stroke-opacity:1" />
      <path
         id="rect912-9"
         d="M 9.9590206,-5.9876633 H 19.48402 v 1.3229167 H 9.9590206 Z"
         style="opacity:1;vector-effect:none;fill:#6aa0ce;fill-opacity:1;stroke:none;stroke-width:0.3109405;stroke-linecap:butt;stroke-linejoin:miter;stroke-miterlimit:4;stroke-dasharray:none;stroke-dashoffset:0;stroke-opacity:1" />
      <path
         id="rect912-8"
         d="M 9.9590206,-8.5012054 H 19.48402 v 1.3229166 H 9.9590206 Z"
         style="opacity:1;vector-effect:none;fill:#6aa0ce;fill-opacity:1;stroke:none;stroke-width:0.3109405;stroke-linecap:butt;stroke-linejoin:miter;stroke-miterlimit:4;stroke-dasharray:none;stroke-dashoffset:0;stroke-opacity:1" />
    </g>
  </g>
</svg>
